<svg width="42" height="34" viewBox="0 0 42 34" fill="none" xmlns="http://www.w3.org/2000/svg">
<path fill-rule="evenodd" clip-rule="evenodd" d="M41.0812 10.9796C41.0812 10.9476 41.0549 10.9328 41.0495 10.9015C41.0417 10.8325 41.0549 10.7623 41.0259 10.6963L36.9066 0.999475C36.7934 0.734839 36.5303 0.559915 36.2382 0.559915H5.83956C5.54731 0.559915 5.28424 0.734839 5.1709 0.999475L1.04893 10.6963C1.01998 10.7623 1.03313 10.8325 1.02262 10.9015C1.01998 10.9328 0.993667 10.9476 0.993667 10.9796C0.993667 10.9938 1.00955 11.0054 1.00955 11.0216C1.01998 11.1797 1.06473 11.3306 1.17275 11.4556L20.4927 33.2883C20.5084 33.3075 20.5374 33.2995 20.5531 33.319C20.6057 33.3652 20.648 33.4072 20.7111 33.441C20.7243 33.4466 20.7268 33.4694 20.7453 33.475C20.84 33.515 20.94 33.5354 21.0349 33.5354C21.1322 33.5354 21.2323 33.515 21.3271 33.475C21.3453 33.4694 21.3481 33.4466 21.3612 33.438C21.4244 33.4072 21.4665 33.3652 21.5165 33.319C21.5349 33.2995 21.564 33.3075 21.5798 33.2883L40.8996 11.4556C41.0075 11.3306 41.0549 11.1797 41.0654 11.0216C41.0654 11.0054 41.0812 10.9938 41.0812 10.9796ZM25.9649 2.0029L29.5183 10.2585H12.5567L16.1127 2.0029H25.9649ZM29.5077 11.7006L21.0349 31.0079L12.5671 11.7006H29.5077ZM10.9826 11.7006L18.5132 28.8717L3.32048 11.7006H10.9826ZM31.0923 11.7006H38.7517L23.5589 28.8687L31.0923 11.7006ZM39.265 10.2585H31.0948L27.5415 2.0029H35.7563L39.265 10.2585ZM6.31859 2.0029H14.5388L10.9826 10.2585H2.80977L6.31859 2.0029Z" fill="url(#paint0_linear_0_157)"/>
<path fill-rule="evenodd" clip-rule="evenodd" d="M41.0812 10.9796C41.0812 10.9476 41.0549 10.9328 41.0495 10.9015C41.0417 10.8325 41.0549 10.7623 41.0259 10.6963L36.9066 0.999475C36.7934 0.734839 36.5303 0.559915 36.2382 0.559915H5.83956C5.54731 0.559915 5.28424 0.734839 5.1709 0.999475L1.04893 10.6963C1.01998 10.7623 1.03313 10.8325 1.02262 10.9015C1.01998 10.9328 0.993667 10.9476 0.993667 10.9796C0.993667 10.9938 1.00955 11.0054 1.00955 11.0216C1.01998 11.1797 1.06473 11.3306 1.17275 11.4556L20.4927 33.2883C20.5084 33.3075 20.5374 33.2995 20.5531 33.319C20.6057 33.3652 20.648 33.4072 20.7111 33.441C20.7243 33.4466 20.7268 33.4694 20.7453 33.475C20.84 33.515 20.94 33.5354 21.0349 33.5354C21.1322 33.5354 21.2323 33.515 21.3271 33.475C21.3453 33.4694 21.3481 33.4466 21.3612 33.438C21.4244 33.4072 21.4665 33.3652 21.5165 33.319C21.5349 33.2995 21.564 33.3075 21.5798 33.2883L40.8996 11.4556C41.0075 11.3306 41.0549 11.1797 41.0654 11.0216C41.0654 11.0054 41.0812 10.9938 41.0812 10.9796ZM25.9649 2.0029L29.5183 10.2585H12.5567L16.1127 2.0029H25.9649ZM29.5077 11.7006L21.0349 31.0079L12.5671 11.7006H29.5077ZM10.9826 11.7006L18.5132 28.8717L3.32048 11.7006H10.9826ZM31.0923 11.7006H38.7517L23.5589 28.8687L31.0923 11.7006ZM39.265 10.2585H31.0948L27.5415 2.0029H35.7563L39.265 10.2585ZM6.31859 2.0029H14.5388L10.9826 10.2585H2.80977L6.31859 2.0029Z" fill="#FF3B4A"/>
<defs>
<linearGradient id="paint0_linear_0_157" x1="16.9999" y1="-15.1938" x2="-10.782" y2="26.3075" gradientUnits="userSpaceOnUse">
<stop stop-color="white"/>
<stop offset="1" stop-color="white"/>
</linearGradient>
</defs>
</svg>
