<svg width="36" height="38" viewBox="0 0 36 38" fill="none" xmlns="http://www.w3.org/2000/svg">
<path fill-rule="evenodd" clip-rule="evenodd" d="M35.1711 12.9098C34.23 10.0961 32.8402 7.55348 31.037 5.35124C29.2446 3.16268 27.0986 1.38964 24.6563 0.081637C24.3816 -0.064283 24.0525 -0.012483 23.8268 0.220157L8.13892 16.1818L6.32744 18.0252C6.22956 18.1123 6.14524 18.2286 6.09355 18.3698C6.08552 18.3905 6.07727 18.4183 6.06899 18.4429L1.85063 30.6528L0.0501919 35.8694C-0.0531901 36.1645 0.00667655 36.4957 0.197127 36.7322C0.341085 36.9084 0.542499 37.0013 0.749075 37.0013C0.817154 37.0013 0.887872 36.9921 0.955914 36.9682L5.78073 35.444L17.1279 31.8569C17.1986 31.8353 17.2694 31.8 17.3346 31.7539C17.3699 31.7263 17.4053 31.6962 17.4378 31.666L19.2901 29.7808L34.9752 13.8182C35.2009 13.5886 35.2772 13.228 35.1711 12.9098ZM2.94948 32.1162C2.97932 32.1381 3.01474 32.1511 3.04484 32.1686C3.36557 32.3932 3.66483 32.6413 3.91228 32.9473C4.15977 33.2498 4.35565 33.6027 4.527 33.9771C4.54614 34.0108 4.55412 34.0529 4.56772 34.0905L1.98664 34.9077L2.94948 32.1162ZM16.5541 30.3017L6.04732 33.6231C6.01741 33.5509 5.96579 33.4967 5.93316 33.426C5.69099 32.839 5.40002 32.2867 5.01923 31.8199C4.63577 31.3543 4.16795 30.9843 3.66483 30.6602C3.60225 30.6196 3.56416 30.5568 3.50158 30.5204L7.42357 19.169L8.59849 17.98L9.54773 19.1364L17.7234 29.1115L16.5541 30.3017ZM18.8304 27.9844L16.456 25.0883L28.9265 12.4049C29.0869 12.2379 29.1683 12.0127 29.1683 11.783C29.1683 11.5858 29.1059 11.3831 28.9726 11.2235C28.6952 10.8832 28.2192 10.861 27.9145 11.1706L15.4443 23.8549L14.9574 23.2576L13.0889 20.9734L25.5538 8.29052C25.7169 8.1224 25.7987 7.89832 25.7987 7.66804C25.7987 7.47088 25.7332 7.26872 25.6028 7.108C25.3226 6.7694 24.8467 6.74836 24.542 7.0562L12.0744 19.7423L9.7054 16.8486L24.4578 1.836C26.5384 3.02324 28.3797 4.5802 29.93 6.48108C31.4911 8.38344 32.715 10.5652 33.5854 12.9708L18.8304 27.9844Z" fill="url(#paint0_linear_0_147)"/>
<path fill-rule="evenodd" clip-rule="evenodd" d="M35.1711 12.9098C34.23 10.0961 32.8402 7.55348 31.037 5.35124C29.2446 3.16268 27.0986 1.38964 24.6563 0.081637C24.3816 -0.064283 24.0525 -0.012483 23.8268 0.220157L8.13892 16.1818L6.32744 18.0252C6.22956 18.1123 6.14524 18.2286 6.09355 18.3698C6.08552 18.3905 6.07727 18.4183 6.06899 18.4429L1.85063 30.6528L0.0501919 35.8694C-0.0531901 36.1645 0.00667655 36.4957 0.197127 36.7322C0.341085 36.9084 0.542499 37.0013 0.749075 37.0013C0.817154 37.0013 0.887872 36.9921 0.955914 36.9682L5.78073 35.444L17.1279 31.8569C17.1986 31.8353 17.2694 31.8 17.3346 31.7539C17.3699 31.7263 17.4053 31.6962 17.4378 31.666L19.2901 29.7808L34.9752 13.8182C35.2009 13.5886 35.2772 13.228 35.1711 12.9098ZM2.94948 32.1162C2.97932 32.1381 3.01474 32.1511 3.04484 32.1686C3.36557 32.3932 3.66483 32.6413 3.91228 32.9473C4.15977 33.2498 4.35565 33.6027 4.527 33.9771C4.54614 34.0108 4.55412 34.0529 4.56772 34.0905L1.98664 34.9077L2.94948 32.1162ZM16.5541 30.3017L6.04732 33.6231C6.01741 33.5509 5.96579 33.4967 5.93316 33.426C5.69099 32.839 5.40002 32.2867 5.01923 31.8199C4.63577 31.3543 4.16795 30.9843 3.66483 30.6602C3.60225 30.6196 3.56416 30.5568 3.50158 30.5204L7.42357 19.169L8.59849 17.98L9.54773 19.1364L17.7234 29.1115L16.5541 30.3017ZM18.8304 27.9844L16.456 25.0883L28.9265 12.4049C29.0869 12.2379 29.1683 12.0127 29.1683 11.783C29.1683 11.5858 29.1059 11.3831 28.9726 11.2235C28.6952 10.8832 28.2192 10.861 27.9145 11.1706L15.4443 23.8549L14.9574 23.2576L13.0889 20.9734L25.5538 8.29052C25.7169 8.1224 25.7987 7.89832 25.7987 7.66804C25.7987 7.47088 25.7332 7.26872 25.6028 7.108C25.3226 6.7694 24.8467 6.74836 24.542 7.0562L12.0744 19.7423L9.7054 16.8486L24.4578 1.836C26.5384 3.02324 28.3797 4.5802 29.93 6.48108C31.4911 8.38344 32.715 10.5652 33.5854 12.9708L18.8304 27.9844Z" fill="#FF3B4A"/>
<defs>
<linearGradient id="paint0_linear_0_147" x1="16.7706" y1="-17.6196" x2="-18.5107" y2="17.6405" gradientUnits="userSpaceOnUse">
<stop stop-color="white"/>
<stop offset="1" stop-color="white"/>
</linearGradient>
</defs>
</svg>
