<svg width="41" height="41" viewBox="0 0 41 41" fill="none" xmlns="http://www.w3.org/2000/svg">
<path fill-rule="evenodd" clip-rule="evenodd" d="M20.0438 25.6599C16.9844 25.6599 14.4944 23.1659 14.4944 20.0946C14.4944 17.0254 16.9844 14.5314 20.0438 14.5314C23.1001 14.5314 25.5877 17.0254 25.5877 20.0946C25.5877 23.1659 23.1001 25.6599 20.0438 25.6599ZM20.0438 15.9735C17.7754 15.9735 15.9326 17.8228 15.9326 20.0946C15.9326 22.3664 17.7754 24.2176 20.0438 24.2176C22.3066 24.2176 24.1494 22.3664 24.1494 20.0946C24.1494 17.8228 22.3066 15.9735 20.0438 15.9735ZM17.6265 40.1916C17.2977 40.1916 17.0107 39.9655 16.9297 39.6464L15.6925 34.6837C14.7293 34.3853 13.7792 33.9795 12.8604 33.4784L8.45952 36.1282C8.1777 36.2981 7.81499 36.2513 7.58253 36.0216L4.16322 32.591C3.93085 32.3587 3.88651 31.9961 4.05615 31.7122L6.69772 27.3048C6.20709 26.3928 5.81287 25.4439 5.52064 24.4665L0.545369 23.2195C0.22704 23.1398 0 22.8492 0 22.5215V17.6775C0 17.3451 0.22704 17.0562 0.545369 16.9781L5.49187 15.7396C5.79464 14.7634 6.19918 13.8103 6.6951 12.8951L4.05361 8.4803C3.88398 8.19584 3.92844 7.83178 4.16059 7.59854L7.57475 4.1756C7.8097 3.94029 8.17245 3.89176 8.45444 4.06789L12.8552 6.71409C13.7609 6.22745 14.7084 5.82846 15.6819 5.53661L16.9244 0.5467C17.0053 0.225852 17.2925 0 17.6214 0H22.4529C22.7817 0 23.0714 0.225852 23.1498 0.5467L24.3871 5.51324C25.358 5.81632 26.3081 6.22068 27.2164 6.71053L31.6224 4.05931C31.8991 3.89739 32.2646 3.94029 32.4996 4.17028L35.9136 7.59348C36.1486 7.82672 36.1929 8.18963 36.0233 8.47585L33.3817 12.8951C33.8672 13.8008 34.2614 14.7504 34.5537 15.7212L39.534 16.973C39.855 17.0512 40.0796 17.3419 40.0796 17.6722V22.5123C40.0796 22.8418 39.855 23.133 39.534 23.2103L34.5537 24.4614C34.2614 25.4418 33.8672 26.3908 33.3843 27.2906L36.0285 31.7066C36.1981 31.9925 36.1538 32.3557 35.9189 32.5886L32.5047 36.0192C32.2699 36.2513 31.9069 36.2909 31.6276 36.1282L27.2217 33.476C26.3133 33.973 25.3632 34.3738 24.3897 34.6804L23.1576 39.6434C23.0766 39.9631 22.7896 40.1883 22.458 40.1883L17.6265 40.1916ZM12.8475 31.9247C12.97 31.9247 13.0952 31.9561 13.2074 32.0212C14.2621 32.631 15.3662 33.0989 16.486 33.4112C16.7339 33.4814 16.9244 33.6835 16.9896 33.9343L18.1904 38.7492L21.8969 38.7463L23.095 33.9292C23.1576 33.6809 23.3481 33.4814 23.5961 33.4112C24.7316 33.0915 25.8331 32.623 26.8746 32.0194C27.1016 31.8857 27.3783 31.8901 27.6029 32.0227L31.8836 34.6029L34.5067 31.9676L31.9358 27.6786C31.7999 27.4525 31.7999 27.1722 31.9279 26.9446C32.5204 25.9169 32.9745 24.8193 33.2826 23.6753C33.3505 23.424 33.5489 23.2286 33.8019 23.1659L38.6412 21.9484V18.2349L33.8019 17.0192C33.5489 16.9576 33.3505 16.7614 33.2826 16.5086C32.9771 15.3755 32.5204 14.2726 31.9279 13.2364C31.7999 13.0126 31.8026 12.7332 31.9358 12.5064L34.5014 8.21656L31.8808 5.58901L27.6002 8.16446C27.3783 8.29972 27.1016 8.30597 26.872 8.1704C25.8278 7.56716 24.7263 7.09949 23.5936 6.7789C23.3456 6.71053 23.155 6.51279 23.0922 6.26151L21.8917 1.4421H18.1853L16.9765 6.28993C16.9141 6.54183 16.7182 6.74309 16.4678 6.81028C15.3323 7.1199 14.2333 7.5775 13.1998 8.17186C12.9753 8.30597 12.6985 8.30298 12.4715 8.16446L8.19597 5.59077L5.57534 8.22219L8.14115 12.5064C8.2769 12.7332 8.2769 13.0126 8.14652 13.2387C7.54345 14.2919 7.07363 15.3995 6.75771 16.532C6.68723 16.7839 6.48887 16.9748 6.23827 17.0379L1.43826 18.2405V21.9558L6.27224 23.1709C6.52547 23.2337 6.72378 23.4299 6.79164 23.6818C7.09956 24.8175 7.55394 25.9193 8.15168 26.9567C8.28206 27.184 8.27952 27.4643 8.14368 27.6884L5.57796 31.9726L8.20113 34.6053L12.4767 32.0292C12.5916 31.9596 12.7194 31.9247 12.8475 31.9247Z" fill="url(#paint0_linear_0_141)"/>
<path fill-rule="evenodd" clip-rule="evenodd" d="M20.0438 25.6599C16.9844 25.6599 14.4944 23.1659 14.4944 20.0946C14.4944 17.0254 16.9844 14.5314 20.0438 14.5314C23.1001 14.5314 25.5877 17.0254 25.5877 20.0946C25.5877 23.1659 23.1001 25.6599 20.0438 25.6599ZM20.0438 15.9735C17.7754 15.9735 15.9326 17.8228 15.9326 20.0946C15.9326 22.3664 17.7754 24.2176 20.0438 24.2176C22.3066 24.2176 24.1494 22.3664 24.1494 20.0946C24.1494 17.8228 22.3066 15.9735 20.0438 15.9735ZM17.6265 40.1916C17.2977 40.1916 17.0107 39.9655 16.9297 39.6464L15.6925 34.6837C14.7293 34.3853 13.7792 33.9795 12.8604 33.4784L8.45952 36.1282C8.1777 36.2981 7.81499 36.2513 7.58253 36.0216L4.16322 32.591C3.93085 32.3587 3.88651 31.9961 4.05615 31.7122L6.69772 27.3048C6.20709 26.3928 5.81287 25.4439 5.52064 24.4665L0.545369 23.2195C0.22704 23.1398 0 22.8492 0 22.5215V17.6775C0 17.3451 0.22704 17.0562 0.545369 16.9781L5.49187 15.7396C5.79464 14.7634 6.19918 13.8103 6.6951 12.8951L4.05361 8.4803C3.88398 8.19584 3.92844 7.83178 4.16059 7.59854L7.57475 4.1756C7.8097 3.94029 8.17245 3.89176 8.45444 4.06789L12.8552 6.71409C13.7609 6.22745 14.7084 5.82846 15.6819 5.53661L16.9244 0.5467C17.0053 0.225852 17.2925 0 17.6214 0H22.4529C22.7817 0 23.0714 0.225852 23.1498 0.5467L24.3871 5.51324C25.358 5.81632 26.3081 6.22068 27.2164 6.71053L31.6224 4.05931C31.8991 3.89739 32.2646 3.94029 32.4996 4.17028L35.9136 7.59348C36.1486 7.82672 36.1929 8.18963 36.0233 8.47585L33.3817 12.8951C33.8672 13.8008 34.2614 14.7504 34.5537 15.7212L39.534 16.973C39.855 17.0512 40.0796 17.3419 40.0796 17.6722V22.5123C40.0796 22.8418 39.855 23.133 39.534 23.2103L34.5537 24.4614C34.2614 25.4418 33.8672 26.3908 33.3843 27.2906L36.0285 31.7066C36.1981 31.9925 36.1538 32.3557 35.9189 32.5886L32.5047 36.0192C32.2699 36.2513 31.9069 36.2909 31.6276 36.1282L27.2217 33.476C26.3133 33.973 25.3632 34.3738 24.3897 34.6804L23.1576 39.6434C23.0766 39.9631 22.7896 40.1883 22.458 40.1883L17.6265 40.1916ZM12.8475 31.9247C12.97 31.9247 13.0952 31.9561 13.2074 32.0212C14.2621 32.631 15.3662 33.0989 16.486 33.4112C16.7339 33.4814 16.9244 33.6835 16.9896 33.9343L18.1904 38.7492L21.8969 38.7463L23.095 33.9292C23.1576 33.6809 23.3481 33.4814 23.5961 33.4112C24.7316 33.0915 25.8331 32.623 26.8746 32.0194C27.1016 31.8857 27.3783 31.8901 27.6029 32.0227L31.8836 34.6029L34.5067 31.9676L31.9358 27.6786C31.7999 27.4525 31.7999 27.1722 31.9279 26.9446C32.5204 25.9169 32.9745 24.8193 33.2826 23.6753C33.3505 23.424 33.5489 23.2286 33.8019 23.1659L38.6412 21.9484V18.2349L33.8019 17.0192C33.5489 16.9576 33.3505 16.7614 33.2826 16.5086C32.9771 15.3755 32.5204 14.2726 31.9279 13.2364C31.7999 13.0126 31.8026 12.7332 31.9358 12.5064L34.5014 8.21656L31.8808 5.58901L27.6002 8.16446C27.3783 8.29972 27.1016 8.30597 26.872 8.1704C25.8278 7.56716 24.7263 7.09949 23.5936 6.7789C23.3456 6.71053 23.155 6.51279 23.0922 6.26151L21.8917 1.4421H18.1853L16.9765 6.28993C16.9141 6.54183 16.7182 6.74309 16.4678 6.81028C15.3323 7.1199 14.2333 7.5775 13.1998 8.17186C12.9753 8.30597 12.6985 8.30298 12.4715 8.16446L8.19597 5.59077L5.57534 8.22219L8.14115 12.5064C8.2769 12.7332 8.2769 13.0126 8.14652 13.2387C7.54345 14.2919 7.07363 15.3995 6.75771 16.532C6.68723 16.7839 6.48887 16.9748 6.23827 17.0379L1.43826 18.2405V21.9558L6.27224 23.1709C6.52547 23.2337 6.72378 23.4299 6.79164 23.6818C7.09956 24.8175 7.55394 25.9193 8.15168 26.9567C8.28206 27.184 8.27952 27.4643 8.14368 27.6884L5.57796 31.9726L8.20113 34.6053L12.4767 32.0292C12.5916 31.9596 12.7194 31.9247 12.8475 31.9247Z" fill="#FF3B4A"/>
<defs>
<linearGradient id="paint0_linear_0_141" x1="20.4952" y1="-19.6391" x2="-19.6936" y2="19.5269" gradientUnits="userSpaceOnUse">
<stop stop-color="white"/>
<stop offset="1" stop-color="white"/>
</linearGradient>
</defs>
</svg>
