<svg width="40" height="34" viewBox="0 0 40 34" fill="none" xmlns="http://www.w3.org/2000/svg">
<path fill-rule="evenodd" clip-rule="evenodd" d="M39.7098 6.57707V16.979C39.711 16.9964 39.7189 17.0099 39.7267 17.0233C39.7351 17.0377 39.7434 17.0519 39.7434 17.0707C39.7434 17.0883 39.7353 17.1017 39.727 17.1154C39.7191 17.1285 39.711 17.1419 39.7098 17.1592V27.5002C39.7098 27.9326 39.3888 28.2804 38.9956 28.2804H36.6124C36.2192 28.2804 35.9009 27.9326 35.9009 27.5002C35.9009 27.0686 36.2192 26.7193 36.6124 26.7193H38.284V17.8495H31.8461C31.4528 17.8495 31.1345 17.5005 31.1345 17.0707V7.35554H25.4083V21.6747C25.4083 22.1039 25.09 22.4555 24.6967 22.4555C24.3033 22.4555 23.9825 22.1039 23.9825 21.6747V6.57707V2.08589H1.43154V26.7193H3.12908C3.52234 26.7193 3.84325 27.0686 3.84325 27.5002C3.84325 27.9326 3.52234 28.2804 3.12908 28.2804H0.719988C0.326562 28.2804 0.0057373 27.9326 0.0057373 27.5002V1.308C0.0057373 0.877661 0.326562 0.529541 0.719988 0.529541H24.6967C25.09 0.529541 25.4083 0.877661 25.4083 1.308V5.79562H38.9956C39.3888 5.79562 39.7098 6.14669 39.7098 6.57707ZM32.5577 16.2893H38.284V7.35554H32.5577V16.2893ZM23.9488 27.5025C23.9488 24.1841 26.4173 21.4855 29.4525 21.4855C32.4826 21.4855 34.9486 24.1841 34.9486 27.5025C34.9486 30.8227 32.4826 33.5222 29.4525 33.5222C26.4173 33.5222 23.9488 30.8227 23.9488 27.5025ZM25.3745 27.5025C25.3745 29.9629 27.204 31.9626 29.4525 31.9626C31.696 31.9626 33.5228 29.9629 33.5228 27.5025C33.5228 25.0437 31.696 23.0448 29.4525 23.0448C27.204 23.0448 25.3745 25.0437 25.3745 27.5025ZM4.79534 27.5002C4.79534 24.1815 7.26141 21.4817 10.2967 21.4817C13.3292 21.4817 15.7979 24.1815 15.7979 27.5002C15.7979 30.8213 13.3292 33.5193 10.2967 33.5193C7.26141 33.5193 4.79534 30.8213 4.79534 27.5002ZM6.21869 27.5002C6.21869 29.9599 8.04801 31.96 10.2967 31.96C12.5426 31.96 14.3722 29.9599 14.3722 27.5002C14.3722 25.0413 12.5426 23.0439 10.2967 23.0439C8.04801 23.0439 6.21869 25.0413 6.21869 27.5002ZM17.4616 26.7193H22.285C22.6782 26.7193 22.9965 27.0686 22.9965 27.5002C22.9965 27.9326 22.6782 28.2804 22.285 28.2804H17.4616C17.0683 28.2804 16.7501 27.9326 16.7501 27.5002C16.7501 27.0686 17.0683 26.7193 17.4616 26.7193Z" fill="url(#paint0_linear_0_174)"/>
<path fill-rule="evenodd" clip-rule="evenodd" d="M39.7098 6.57707V16.979C39.711 16.9964 39.7189 17.0099 39.7267 17.0233C39.7351 17.0377 39.7434 17.0519 39.7434 17.0707C39.7434 17.0883 39.7353 17.1017 39.727 17.1154C39.7191 17.1285 39.711 17.1419 39.7098 17.1592V27.5002C39.7098 27.9326 39.3888 28.2804 38.9956 28.2804H36.6124C36.2192 28.2804 35.9009 27.9326 35.9009 27.5002C35.9009 27.0686 36.2192 26.7193 36.6124 26.7193H38.284V17.8495H31.8461C31.4528 17.8495 31.1345 17.5005 31.1345 17.0707V7.35554H25.4083V21.6747C25.4083 22.1039 25.09 22.4555 24.6967 22.4555C24.3033 22.4555 23.9825 22.1039 23.9825 21.6747V6.57707V2.08589H1.43154V26.7193H3.12908C3.52234 26.7193 3.84325 27.0686 3.84325 27.5002C3.84325 27.9326 3.52234 28.2804 3.12908 28.2804H0.719988C0.326562 28.2804 0.0057373 27.9326 0.0057373 27.5002V1.308C0.0057373 0.877661 0.326562 0.529541 0.719988 0.529541H24.6967C25.09 0.529541 25.4083 0.877661 25.4083 1.308V5.79562H38.9956C39.3888 5.79562 39.7098 6.14669 39.7098 6.57707ZM32.5577 16.2893H38.284V7.35554H32.5577V16.2893ZM23.9488 27.5025C23.9488 24.1841 26.4173 21.4855 29.4525 21.4855C32.4826 21.4855 34.9486 24.1841 34.9486 27.5025C34.9486 30.8227 32.4826 33.5222 29.4525 33.5222C26.4173 33.5222 23.9488 30.8227 23.9488 27.5025ZM25.3745 27.5025C25.3745 29.9629 27.204 31.9626 29.4525 31.9626C31.696 31.9626 33.5228 29.9629 33.5228 27.5025C33.5228 25.0437 31.696 23.0448 29.4525 23.0448C27.204 23.0448 25.3745 25.0437 25.3745 27.5025ZM4.79534 27.5002C4.79534 24.1815 7.26141 21.4817 10.2967 21.4817C13.3292 21.4817 15.7979 24.1815 15.7979 27.5002C15.7979 30.8213 13.3292 33.5193 10.2967 33.5193C7.26141 33.5193 4.79534 30.8213 4.79534 27.5002ZM6.21869 27.5002C6.21869 29.9599 8.04801 31.96 10.2967 31.96C12.5426 31.96 14.3722 29.9599 14.3722 27.5002C14.3722 25.0413 12.5426 23.0439 10.2967 23.0439C8.04801 23.0439 6.21869 25.0413 6.21869 27.5002ZM17.4616 26.7193H22.285C22.6782 26.7193 22.9965 27.0686 22.9965 27.5002C22.9965 27.9326 22.6782 28.2804 22.285 28.2804H17.4616C17.0683 28.2804 16.7501 27.9326 16.7501 27.5002C16.7501 27.0686 17.0683 26.7193 17.4616 26.7193Z" fill="#FF3B4A"/>
<defs>
<linearGradient id="paint0_linear_0_174" x1="15.5553" y1="-12.3806" x2="-8.75052" y2="25.0261" gradientUnits="userSpaceOnUse">
<stop stop-color="white"/>
<stop offset="1" stop-color="white"/>
</linearGradient>
</defs>
</svg>
